<svg xmlns="http://www.w3.org/2000/svg" xmlns:xlink="http://www.w3.org/1999/xlink" width="500" zoomAndPan="magnify" viewBox="0 0 375 149.999998" height="200" preserveAspectRatio="xMidYMid meet" version="1.0"><defs><g/><clipPath id="10a71c370f"><path d="M 161 0.871094 L 349 0.871094 L 349 149.25 L 161 149.25 Z M 161 0.871094 " clip-rule="nonzero"/></clipPath><clipPath id="1196528550"><path d="M 260.339844 0.871094 L 345.972656 0.871094 C 347.019531 0.871094 347.980469 1.445312 348.480469 2.363281 C 348.980469 3.28125 348.9375 4.402344 348.371094 5.277344 L 257.945312 144.84375 C 256.164062 147.589844 253.113281 149.25 249.839844 149.25 L 164.207031 149.25 C 163.164062 149.25 162.199219 148.679688 161.699219 147.757812 C 161.203125 146.839844 161.246094 145.722656 161.8125 144.84375 L 252.238281 5.277344 C 254.015625 2.53125 257.066406 0.871094 260.339844 0.871094 " clip-rule="nonzero"/></clipPath></defs><g clip-path="url(#10a71c370f)"><g clip-path="url(#1196528550)"><path fill="#8fd974" d="M 158.957031 0.871094 L 351.222656 0.871094 L 351.222656 149.25 L 158.957031 149.25 Z M 158.957031 0.871094 " fill-opacity="1" fill-rule="nonzero"/></g></g><g fill="#83cd29" fill-opacity="0.302"><g transform="translate(19.827488, 125.265309)"><g><path d="M 1.78125 0 L 9.015625 -33.9375 L 13.671875 -33.9375 L 6.453125 0 Z M 1.78125 0 "/></g></g></g><g fill="#83cd29" fill-opacity="0.302"><g transform="translate(33.290883, 125.265309)"><g><path d="M 7.03125 0 L 13.34375 -29.828125 L 4.203125 -29.828125 L 5.078125 -33.9375 L 28.109375 -33.9375 L 27.25 -29.828125 L 18.109375 -29.828125 L 11.765625 0 Z M 7.03125 0 "/></g></g></g><g fill="#83cd29" fill-opacity="0.302"><g transform="translate(57.385718, 125.265309)"><g/></g></g><g fill="#83cd29" fill-opacity="0.502"><g transform="translate(19.827488, 125.324752)"><g><path d="M 1.78125 0 L 9.015625 -33.9375 L 13.671875 -33.9375 L 6.453125 0 Z M 1.78125 0 "/></g></g></g><g fill="#83cd29" fill-opacity="0.502"><g transform="translate(33.290883, 125.324752)"><g><path d="M 7.03125 0 L 13.34375 -29.828125 L 4.203125 -29.828125 L 5.078125 -33.9375 L 28.109375 -33.9375 L 27.25 -29.828125 L 18.109375 -29.828125 L 11.765625 0 Z M 7.03125 0 "/></g></g></g><g fill="#83cd29" fill-opacity="0.502"><g transform="translate(57.385718, 125.324752)"><g/></g></g><g fill="#ffffff" fill-opacity="1"><g transform="translate(19.827488, 125.384196)"><g><path d="M 1.78125 0 L 9.015625 -33.9375 L 13.671875 -33.9375 L 6.453125 0 Z M 1.78125 0 "/></g></g></g><g fill="#ffffff" fill-opacity="1"><g transform="translate(33.290883, 125.384196)"><g><path d="M 7.03125 0 L 13.34375 -29.828125 L 4.203125 -29.828125 L 5.078125 -33.9375 L 28.109375 -33.9375 L 27.25 -29.828125 L 18.109375 -29.828125 L 11.765625 0 Z M 7.03125 0 "/></g></g></g><g fill="#ffffff" fill-opacity="1"><g transform="translate(57.385718, 125.384196)"><g/></g></g><g fill="#83cd29" fill-opacity="0.302"><g transform="translate(69.727948, 125.265309)"><g><path d="M 9.1875 0.46875 C 7.289062 0.46875 5.695312 0.320312 4.40625 0.03125 C 3.125 -0.25 1.957031 -0.625 0.90625 -1.09375 L 0.90625 -3.53125 C 1.957031 -3 3.160156 -2.550781 4.515625 -2.1875 C 5.878906 -1.820312 7.445312 -1.640625 9.21875 -1.640625 C 10.269531 -1.640625 11.332031 -1.773438 12.40625 -2.046875 C 13.476562 -2.316406 14.46875 -2.742188 15.375 -3.328125 C 16.28125 -3.921875 17.007812 -4.6875 17.5625 -5.625 C 18.113281 -6.5625 18.390625 -7.695312 18.390625 -9.03125 C 18.390625 -10.25 18.125 -11.289062 17.59375 -12.15625 C 17.070312 -13.03125 16.304688 -13.816406 15.296875 -14.515625 C 14.296875 -15.210938 13.085938 -15.921875 11.671875 -16.640625 C 10.578125 -17.242188 9.546875 -17.910156 8.578125 -18.640625 C 7.609375 -19.378906 6.828125 -20.257812 6.234375 -21.28125 C 5.648438 -22.3125 5.359375 -23.546875 5.359375 -24.984375 C 5.359375 -26.617188 5.664062 -28.03125 6.28125 -29.21875 C 6.894531 -30.414062 7.722656 -31.394531 8.765625 -32.15625 C 9.804688 -32.925781 10.976562 -33.5 12.28125 -33.875 C 13.582031 -34.25 14.921875 -34.4375 16.296875 -34.4375 C 18.023438 -34.4375 19.507812 -34.269531 20.75 -33.9375 C 21.988281 -33.601562 23.195312 -33.148438 24.375 -32.578125 L 23.453125 -30.484375 C 22.335938 -31.035156 21.207031 -31.46875 20.0625 -31.78125 C 18.925781 -32.101562 17.65625 -32.265625 16.25 -32.265625 C 15.300781 -32.265625 14.335938 -32.132812 13.359375 -31.875 C 12.378906 -31.625 11.46875 -31.21875 10.625 -30.65625 C 9.789062 -30.101562 9.117188 -29.375 8.609375 -28.46875 C 8.097656 -27.5625 7.84375 -26.453125 7.84375 -25.140625 C 7.84375 -23.953125 8.085938 -22.960938 8.578125 -22.171875 C 9.078125 -21.378906 9.742188 -20.691406 10.578125 -20.109375 C 11.421875 -19.535156 12.351562 -18.96875 13.375 -18.40625 C 14.800781 -17.632812 16.078125 -16.847656 17.203125 -16.046875 C 18.328125 -15.253906 19.21875 -14.316406 19.875 -13.234375 C 20.539062 -12.160156 20.875 -10.804688 20.875 -9.171875 C 20.875 -7.460938 20.539062 -6 19.875 -4.78125 C 19.21875 -3.5625 18.332031 -2.5625 17.21875 -1.78125 C 16.113281 -1.007812 14.867188 -0.441406 13.484375 -0.078125 C 12.097656 0.285156 10.664062 0.46875 9.1875 0.46875 Z M 9.1875 0.46875 "/></g></g></g><g fill="#83cd29" fill-opacity="0.302"><g transform="translate(93.521016, 125.265309)"><g><path d="M 15.921875 0.46875 C 13.085938 0.46875 10.773438 -0.117188 8.984375 -1.296875 C 7.191406 -2.472656 5.875 -4.070312 5.03125 -6.09375 C 4.195312 -8.113281 3.78125 -10.398438 3.78125 -12.953125 C 3.78125 -14.773438 3.9375 -16.566406 4.25 -18.328125 C 4.570312 -20.085938 5.039062 -21.769531 5.65625 -23.375 C 6.28125 -24.988281 7.0625 -26.46875 8 -27.8125 C 8.9375 -29.15625 10.023438 -30.328125 11.265625 -31.328125 C 12.515625 -32.328125 13.910156 -33.097656 15.453125 -33.640625 C 16.992188 -34.191406 18.691406 -34.46875 20.546875 -34.46875 C 24.179688 -34.46875 27.0625 -33.347656 29.1875 -31.109375 C 31.320312 -28.867188 32.390625 -25.550781 32.390625 -21.15625 C 32.390625 -19.644531 32.257812 -18.066406 32 -16.421875 C 31.75 -14.785156 31.351562 -13.160156 30.8125 -11.546875 C 30.269531 -9.929688 29.566406 -8.40625 28.703125 -6.96875 C 27.847656 -5.53125 26.8125 -4.253906 25.59375 -3.140625 C 24.382812 -2.023438 22.976562 -1.144531 21.375 -0.5 C 19.769531 0.144531 17.953125 0.46875 15.921875 0.46875 Z M 16.015625 -1.671875 C 17.660156 -1.671875 19.144531 -1.957031 20.46875 -2.53125 C 21.789062 -3.101562 22.960938 -3.890625 23.984375 -4.890625 C 25.015625 -5.898438 25.898438 -7.046875 26.640625 -8.328125 C 27.390625 -9.617188 28.003906 -10.988281 28.484375 -12.4375 C 28.960938 -13.894531 29.316406 -15.367188 29.546875 -16.859375 C 29.785156 -18.359375 29.90625 -19.796875 29.90625 -21.171875 C 29.90625 -24.640625 29.101562 -27.363281 27.5 -29.34375 C 25.894531 -31.320312 23.515625 -32.3125 20.359375 -32.3125 C 18.722656 -32.3125 17.234375 -32.046875 15.890625 -31.515625 C 14.554688 -30.984375 13.363281 -30.242188 12.3125 -29.296875 C 11.269531 -28.347656 10.367188 -27.25 9.609375 -26 C 8.847656 -24.75 8.21875 -23.398438 7.71875 -21.953125 C 7.226562 -20.515625 6.863281 -19.035156 6.625 -17.515625 C 6.382812 -16.003906 6.265625 -14.507812 6.265625 -13.03125 C 6.265625 -10.769531 6.613281 -8.785156 7.3125 -7.078125 C 8.019531 -5.378906 9.09375 -4.050781 10.53125 -3.09375 C 11.976562 -2.144531 13.804688 -1.671875 16.015625 -1.671875 Z M 16.015625 -1.671875 "/></g></g></g><g fill="#83cd29" fill-opacity="0.302"><g transform="translate(127.643759, 125.265309)"><g><path d="M 2.203125 0 L 9.40625 -33.9375 L 11.765625 -33.9375 L 5.03125 -2.1875 L 19.703125 -2.1875 L 19.25 0 Z M 2.203125 0 "/></g></g></g><g fill="#83cd29" fill-opacity="0.302"><g transform="translate(150.763658, 125.265309)"><g><path d="M 14.25 0.46875 C 12.101562 0.46875 10.265625 0.113281 8.734375 -0.59375 C 7.210938 -1.3125 6.046875 -2.359375 5.234375 -3.734375 C 4.421875 -5.109375 4.015625 -6.796875 4.015625 -8.796875 C 4.015625 -9.328125 4.054688 -9.910156 4.140625 -10.546875 C 4.222656 -11.191406 4.335938 -11.867188 4.484375 -12.578125 L 9.03125 -33.9375 L 11.421875 -33.9375 L 6.890625 -12.5625 C 6.753906 -11.90625 6.644531 -11.25 6.5625 -10.59375 C 6.488281 -9.9375 6.453125 -9.363281 6.453125 -8.875 C 6.453125 -6.5625 7.148438 -4.78125 8.546875 -3.53125 C 9.953125 -2.289062 11.894531 -1.671875 14.375 -1.671875 C 16.425781 -1.671875 18.210938 -2.054688 19.734375 -2.828125 C 21.253906 -3.609375 22.519531 -4.765625 23.53125 -6.296875 C 24.539062 -7.835938 25.296875 -9.769531 25.796875 -12.09375 L 30.484375 -33.9375 L 32.84375 -33.9375 L 28.1875 -11.8125 C 27.59375 -9.070312 26.6875 -6.789062 25.46875 -4.96875 C 24.25 -3.15625 22.703125 -1.796875 20.828125 -0.890625 C 18.953125 0.015625 16.757812 0.46875 14.25 0.46875 Z M 14.25 0.46875 "/></g></g></g><g fill="#83cd29" fill-opacity="0.302"><g transform="translate(183.377572, 125.265309)"><g><path d="M 7.796875 0 L 14.5625 -31.78125 L 4.359375 -31.78125 L 4.828125 -33.9375 L 27.625 -33.9375 L 27.1875 -31.78125 L 16.96875 -31.78125 L 10.234375 0 Z M 7.796875 0 "/></g></g></g><g fill="#83cd29" fill-opacity="0.302"><g transform="translate(206.706386, 125.265309)"><g><path d="M 2.1875 0 L 9.421875 -33.9375 L 11.75 -33.9375 L 4.53125 0 Z M 2.1875 0 "/></g></g></g><g fill="#83cd29" fill-opacity="0.302"><g transform="translate(218.498463, 125.265309)"><g><path d="M 15.921875 0.46875 C 13.085938 0.46875 10.773438 -0.117188 8.984375 -1.296875 C 7.191406 -2.472656 5.875 -4.070312 5.03125 -6.09375 C 4.195312 -8.113281 3.78125 -10.398438 3.78125 -12.953125 C 3.78125 -14.773438 3.9375 -16.566406 4.25 -18.328125 C 4.570312 -20.085938 5.039062 -21.769531 5.65625 -23.375 C 6.28125 -24.988281 7.0625 -26.46875 8 -27.8125 C 8.9375 -29.15625 10.023438 -30.328125 11.265625 -31.328125 C 12.515625 -32.328125 13.910156 -33.097656 15.453125 -33.640625 C 16.992188 -34.191406 18.691406 -34.46875 20.546875 -34.46875 C 24.179688 -34.46875 27.0625 -33.347656 29.1875 -31.109375 C 31.320312 -28.867188 32.390625 -25.550781 32.390625 -21.15625 C 32.390625 -19.644531 32.257812 -18.066406 32 -16.421875 C 31.75 -14.785156 31.351562 -13.160156 30.8125 -11.546875 C 30.269531 -9.929688 29.566406 -8.40625 28.703125 -6.96875 C 27.847656 -5.53125 26.8125 -4.253906 25.59375 -3.140625 C 24.382812 -2.023438 22.976562 -1.144531 21.375 -0.5 C 19.769531 0.144531 17.953125 0.46875 15.921875 0.46875 Z M 16.015625 -1.671875 C 17.660156 -1.671875 19.144531 -1.957031 20.46875 -2.53125 C 21.789062 -3.101562 22.960938 -3.890625 23.984375 -4.890625 C 25.015625 -5.898438 25.898438 -7.046875 26.640625 -8.328125 C 27.390625 -9.617188 28.003906 -10.988281 28.484375 -12.4375 C 28.960938 -13.894531 29.316406 -15.367188 29.546875 -16.859375 C 29.785156 -18.359375 29.90625 -19.796875 29.90625 -21.171875 C 29.90625 -24.640625 29.101562 -27.363281 27.5 -29.34375 C 25.894531 -31.320312 23.515625 -32.3125 20.359375 -32.3125 C 18.722656 -32.3125 17.234375 -32.046875 15.890625 -31.515625 C 14.554688 -30.984375 13.363281 -30.242188 12.3125 -29.296875 C 11.269531 -28.347656 10.367188 -27.25 9.609375 -26 C 8.847656 -24.75 8.21875 -23.398438 7.71875 -21.953125 C 7.226562 -20.515625 6.863281 -19.035156 6.625 -17.515625 C 6.382812 -16.003906 6.265625 -14.507812 6.265625 -13.03125 C 6.265625 -10.769531 6.613281 -8.785156 7.3125 -7.078125 C 8.019531 -5.378906 9.09375 -4.050781 10.53125 -3.09375 C 11.976562 -2.144531 13.804688 -1.671875 16.015625 -1.671875 Z M 16.015625 -1.671875 "/></g></g></g><g fill="#83cd29" fill-opacity="0.302"><g transform="translate(252.621206, 125.265309)"><g><path d="M 2.1875 0 L 9.375 -33.9375 L 11.65625 -33.9375 L 23.953125 -3.8125 L 24.046875 -3.8125 C 24.191406 -4.613281 24.347656 -5.484375 24.515625 -6.421875 C 24.679688 -7.359375 24.859375 -8.304688 25.046875 -9.265625 C 25.234375 -10.222656 25.421875 -11.128906 25.609375 -11.984375 L 30.296875 -33.9375 L 32.578125 -33.9375 L 25.40625 0 L 23.09375 0 L 10.765625 -30.140625 L 10.671875 -30.140625 C 10.566406 -29.515625 10.453125 -28.863281 10.328125 -28.1875 C 10.203125 -27.519531 10.070312 -26.832031 9.9375 -26.125 C 9.8125 -25.425781 9.675781 -24.71875 9.53125 -24 C 9.394531 -23.28125 9.257812 -22.554688 9.125 -21.828125 L 4.5 0 Z M 2.1875 0 "/></g></g></g><g fill="#83cd29" fill-opacity="0.302"><g transform="translate(285.258345, 125.265309)"><g><path d="M 9.1875 0.46875 C 7.289062 0.46875 5.695312 0.320312 4.40625 0.03125 C 3.125 -0.25 1.957031 -0.625 0.90625 -1.09375 L 0.90625 -3.53125 C 1.957031 -3 3.160156 -2.550781 4.515625 -2.1875 C 5.878906 -1.820312 7.445312 -1.640625 9.21875 -1.640625 C 10.269531 -1.640625 11.332031 -1.773438 12.40625 -2.046875 C 13.476562 -2.316406 14.46875 -2.742188 15.375 -3.328125 C 16.28125 -3.921875 17.007812 -4.6875 17.5625 -5.625 C 18.113281 -6.5625 18.390625 -7.695312 18.390625 -9.03125 C 18.390625 -10.25 18.125 -11.289062 17.59375 -12.15625 C 17.070312 -13.03125 16.304688 -13.816406 15.296875 -14.515625 C 14.296875 -15.210938 13.085938 -15.921875 11.671875 -16.640625 C 10.578125 -17.242188 9.546875 -17.910156 8.578125 -18.640625 C 7.609375 -19.378906 6.828125 -20.257812 6.234375 -21.28125 C 5.648438 -22.3125 5.359375 -23.546875 5.359375 -24.984375 C 5.359375 -26.617188 5.664062 -28.03125 6.28125 -29.21875 C 6.894531 -30.414062 7.722656 -31.394531 8.765625 -32.15625 C 9.804688 -32.925781 10.976562 -33.5 12.28125 -33.875 C 13.582031 -34.25 14.921875 -34.4375 16.296875 -34.4375 C 18.023438 -34.4375 19.507812 -34.269531 20.75 -33.9375 C 21.988281 -33.601562 23.195312 -33.148438 24.375 -32.578125 L 23.453125 -30.484375 C 22.335938 -31.035156 21.207031 -31.46875 20.0625 -31.78125 C 18.925781 -32.101562 17.65625 -32.265625 16.25 -32.265625 C 15.300781 -32.265625 14.335938 -32.132812 13.359375 -31.875 C 12.378906 -31.625 11.46875 -31.21875 10.625 -30.65625 C 9.789062 -30.101562 9.117188 -29.375 8.609375 -28.46875 C 8.097656 -27.5625 7.84375 -26.453125 7.84375 -25.140625 C 7.84375 -23.953125 8.085938 -22.960938 8.578125 -22.171875 C 9.078125 -21.378906 9.742188 -20.691406 10.578125 -20.109375 C 11.421875 -19.535156 12.351562 -18.96875 13.375 -18.40625 C 14.800781 -17.632812 16.078125 -16.847656 17.203125 -16.046875 C 18.328125 -15.253906 19.21875 -14.316406 19.875 -13.234375 C 20.539062 -12.160156 20.875 -10.804688 20.875 -9.171875 C 20.875 -7.460938 20.539062 -6 19.875 -4.78125 C 19.21875 -3.5625 18.332031 -2.5625 17.21875 -1.78125 C 16.113281 -1.007812 14.867188 -0.441406 13.484375 -0.078125 C 12.097656 0.285156 10.664062 0.46875 9.1875 0.46875 Z M 9.1875 0.46875 "/></g></g></g><g fill="#83cd29" fill-opacity="0.502"><g transform="translate(69.727948, 125.324752)"><g><path d="M 9.1875 0.46875 C 7.289062 0.46875 5.695312 0.320312 4.40625 0.03125 C 3.125 -0.25 1.957031 -0.625 0.90625 -1.09375 L 0.90625 -3.53125 C 1.957031 -3 3.160156 -2.550781 4.515625 -2.1875 C 5.878906 -1.820312 7.445312 -1.640625 9.21875 -1.640625 C 10.269531 -1.640625 11.332031 -1.773438 12.40625 -2.046875 C 13.476562 -2.316406 14.46875 -2.742188 15.375 -3.328125 C 16.28125 -3.921875 17.007812 -4.6875 17.5625 -5.625 C 18.113281 -6.5625 18.390625 -7.695312 18.390625 -9.03125 C 18.390625 -10.25 18.125 -11.289062 17.59375 -12.15625 C 17.070312 -13.03125 16.304688 -13.816406 15.296875 -14.515625 C 14.296875 -15.210938 13.085938 -15.921875 11.671875 -16.640625 C 10.578125 -17.242188 9.546875 -17.910156 8.578125 -18.640625 C 7.609375 -19.378906 6.828125 -20.257812 6.234375 -21.28125 C 5.648438 -22.3125 5.359375 -23.546875 5.359375 -24.984375 C 5.359375 -26.617188 5.664062 -28.03125 6.28125 -29.21875 C 6.894531 -30.414062 7.722656 -31.394531 8.765625 -32.15625 C 9.804688 -32.925781 10.976562 -33.5 12.28125 -33.875 C 13.582031 -34.25 14.921875 -34.4375 16.296875 -34.4375 C 18.023438 -34.4375 19.507812 -34.269531 20.75 -33.9375 C 21.988281 -33.601562 23.195312 -33.148438 24.375 -32.578125 L 23.453125 -30.484375 C 22.335938 -31.035156 21.207031 -31.46875 20.0625 -31.78125 C 18.925781 -32.101562 17.65625 -32.265625 16.25 -32.265625 C 15.300781 -32.265625 14.335938 -32.132812 13.359375 -31.875 C 12.378906 -31.625 11.46875 -31.21875 10.625 -30.65625 C 9.789062 -30.101562 9.117188 -29.375 8.609375 -28.46875 C 8.097656 -27.5625 7.84375 -26.453125 7.84375 -25.140625 C 7.84375 -23.953125 8.085938 -22.960938 8.578125 -22.171875 C 9.078125 -21.378906 9.742188 -20.691406 10.578125 -20.109375 C 11.421875 -19.535156 12.351562 -18.96875 13.375 -18.40625 C 14.800781 -17.632812 16.078125 -16.847656 17.203125 -16.046875 C 18.328125 -15.253906 19.21875 -14.316406 19.875 -13.234375 C 20.539062 -12.160156 20.875 -10.804688 20.875 -9.171875 C 20.875 -7.460938 20.539062 -6 19.875 -4.78125 C 19.21875 -3.5625 18.332031 -2.5625 17.21875 -1.78125 C 16.113281 -1.007812 14.867188 -0.441406 13.484375 -0.078125 C 12.097656 0.285156 10.664062 0.46875 9.1875 0.46875 Z M 9.1875 0.46875 "/></g></g></g><g fill="#83cd29" fill-opacity="0.502"><g transform="translate(93.521016, 125.324752)"><g><path d="M 15.921875 0.46875 C 13.085938 0.46875 10.773438 -0.117188 8.984375 -1.296875 C 7.191406 -2.472656 5.875 -4.070312 5.03125 -6.09375 C 4.195312 -8.113281 3.78125 -10.398438 3.78125 -12.953125 C 3.78125 -14.773438 3.9375 -16.566406 4.25 -18.328125 C 4.570312 -20.085938 5.039062 -21.769531 5.65625 -23.375 C 6.28125 -24.988281 7.0625 -26.46875 8 -27.8125 C 8.9375 -29.15625 10.023438 -30.328125 11.265625 -31.328125 C 12.515625 -32.328125 13.910156 -33.097656 15.453125 -33.640625 C 16.992188 -34.191406 18.691406 -34.46875 20.546875 -34.46875 C 24.179688 -34.46875 27.0625 -33.347656 29.1875 -31.109375 C 31.320312 -28.867188 32.390625 -25.550781 32.390625 -21.15625 C 32.390625 -19.644531 32.257812 -18.066406 32 -16.421875 C 31.75 -14.785156 31.351562 -13.160156 30.8125 -11.546875 C 30.269531 -9.929688 29.566406 -8.40625 28.703125 -6.96875 C 27.847656 -5.53125 26.8125 -4.253906 25.59375 -3.140625 C 24.382812 -2.023438 22.976562 -1.144531 21.375 -0.5 C 19.769531 0.144531 17.953125 0.46875 15.921875 0.46875 Z M 16.015625 -1.671875 C 17.660156 -1.671875 19.144531 -1.957031 20.46875 -2.53125 C 21.789062 -3.101562 22.960938 -3.890625 23.984375 -4.890625 C 25.015625 -5.898438 25.898438 -7.046875 26.640625 -8.328125 C 27.390625 -9.617188 28.003906 -10.988281 28.484375 -12.4375 C 28.960938 -13.894531 29.316406 -15.367188 29.546875 -16.859375 C 29.785156 -18.359375 29.90625 -19.796875 29.90625 -21.171875 C 29.90625 -24.640625 29.101562 -27.363281 27.5 -29.34375 C 25.894531 -31.320312 23.515625 -32.3125 20.359375 -32.3125 C 18.722656 -32.3125 17.234375 -32.046875 15.890625 -31.515625 C 14.554688 -30.984375 13.363281 -30.242188 12.3125 -29.296875 C 11.269531 -28.347656 10.367188 -27.25 9.609375 -26 C 8.847656 -24.75 8.21875 -23.398438 7.71875 -21.953125 C 7.226562 -20.515625 6.863281 -19.035156 6.625 -17.515625 C 6.382812 -16.003906 6.265625 -14.507812 6.265625 -13.03125 C 6.265625 -10.769531 6.613281 -8.785156 7.3125 -7.078125 C 8.019531 -5.378906 9.09375 -4.050781 10.53125 -3.09375 C 11.976562 -2.144531 13.804688 -1.671875 16.015625 -1.671875 Z M 16.015625 -1.671875 "/></g></g></g><g fill="#83cd29" fill-opacity="0.502"><g transform="translate(127.643759, 125.324752)"><g><path d="M 2.203125 0 L 9.40625 -33.9375 L 11.765625 -33.9375 L 5.03125 -2.1875 L 19.703125 -2.1875 L 19.25 0 Z M 2.203125 0 "/></g></g></g><g fill="#83cd29" fill-opacity="0.502"><g transform="translate(150.763658, 125.324752)"><g><path d="M 14.25 0.46875 C 12.101562 0.46875 10.265625 0.113281 8.734375 -0.59375 C 7.210938 -1.3125 6.046875 -2.359375 5.234375 -3.734375 C 4.421875 -5.109375 4.015625 -6.796875 4.015625 -8.796875 C 4.015625 -9.328125 4.054688 -9.910156 4.140625 -10.546875 C 4.222656 -11.191406 4.335938 -11.867188 4.484375 -12.578125 L 9.03125 -33.9375 L 11.421875 -33.9375 L 6.890625 -12.5625 C 6.753906 -11.90625 6.644531 -11.25 6.5625 -10.59375 C 6.488281 -9.9375 6.453125 -9.363281 6.453125 -8.875 C 6.453125 -6.5625 7.148438 -4.78125 8.546875 -3.53125 C 9.953125 -2.289062 11.894531 -1.671875 14.375 -1.671875 C 16.425781 -1.671875 18.210938 -2.054688 19.734375 -2.828125 C 21.253906 -3.609375 22.519531 -4.765625 23.53125 -6.296875 C 24.539062 -7.835938 25.296875 -9.769531 25.796875 -12.09375 L 30.484375 -33.9375 L 32.84375 -33.9375 L 28.1875 -11.8125 C 27.59375 -9.070312 26.6875 -6.789062 25.46875 -4.96875 C 24.25 -3.15625 22.703125 -1.796875 20.828125 -0.890625 C 18.953125 0.015625 16.757812 0.46875 14.25 0.46875 Z M 14.25 0.46875 "/></g></g></g><g fill="#83cd29" fill-opacity="0.502"><g transform="translate(183.377572, 125.324752)"><g><path d="M 7.796875 0 L 14.5625 -31.78125 L 4.359375 -31.78125 L 4.828125 -33.9375 L 27.625 -33.9375 L 27.1875 -31.78125 L 16.96875 -31.78125 L 10.234375 0 Z M 7.796875 0 "/></g></g></g><g fill="#83cd29" fill-opacity="0.502"><g transform="translate(206.706386, 125.324752)"><g><path d="M 2.1875 0 L 9.421875 -33.9375 L 11.75 -33.9375 L 4.53125 0 Z M 2.1875 0 "/></g></g></g><g fill="#83cd29" fill-opacity="0.502"><g transform="translate(218.498463, 125.324752)"><g><path d="M 15.921875 0.46875 C 13.085938 0.46875 10.773438 -0.117188 8.984375 -1.296875 C 7.191406 -2.472656 5.875 -4.070312 5.03125 -6.09375 C 4.195312 -8.113281 3.78125 -10.398438 3.78125 -12.953125 C 3.78125 -14.773438 3.9375 -16.566406 4.25 -18.328125 C 4.570312 -20.085938 5.039062 -21.769531 5.65625 -23.375 C 6.28125 -24.988281 7.0625 -26.46875 8 -27.8125 C 8.9375 -29.15625 10.023438 -30.328125 11.265625 -31.328125 C 12.515625 -32.328125 13.910156 -33.097656 15.453125 -33.640625 C 16.992188 -34.191406 18.691406 -34.46875 20.546875 -34.46875 C 24.179688 -34.46875 27.0625 -33.347656 29.1875 -31.109375 C 31.320312 -28.867188 32.390625 -25.550781 32.390625 -21.15625 C 32.390625 -19.644531 32.257812 -18.066406 32 -16.421875 C 31.75 -14.785156 31.351562 -13.160156 30.8125 -11.546875 C 30.269531 -9.929688 29.566406 -8.40625 28.703125 -6.96875 C 27.847656 -5.53125 26.8125 -4.253906 25.59375 -3.140625 C 24.382812 -2.023438 22.976562 -1.144531 21.375 -0.5 C 19.769531 0.144531 17.953125 0.46875 15.921875 0.46875 Z M 16.015625 -1.671875 C 17.660156 -1.671875 19.144531 -1.957031 20.46875 -2.53125 C 21.789062 -3.101562 22.960938 -3.890625 23.984375 -4.890625 C 25.015625 -5.898438 25.898438 -7.046875 26.640625 -8.328125 C 27.390625 -9.617188 28.003906 -10.988281 28.484375 -12.4375 C 28.960938 -13.894531 29.316406 -15.367188 29.546875 -16.859375 C 29.785156 -18.359375 29.90625 -19.796875 29.90625 -21.171875 C 29.90625 -24.640625 29.101562 -27.363281 27.5 -29.34375 C 25.894531 -31.320312 23.515625 -32.3125 20.359375 -32.3125 C 18.722656 -32.3125 17.234375 -32.046875 15.890625 -31.515625 C 14.554688 -30.984375 13.363281 -30.242188 12.3125 -29.296875 C 11.269531 -28.347656 10.367188 -27.25 9.609375 -26 C 8.847656 -24.75 8.21875 -23.398438 7.71875 -21.953125 C 7.226562 -20.515625 6.863281 -19.035156 6.625 -17.515625 C 6.382812 -16.003906 6.265625 -14.507812 6.265625 -13.03125 C 6.265625 -10.769531 6.613281 -8.785156 7.3125 -7.078125 C 8.019531 -5.378906 9.09375 -4.050781 10.53125 -3.09375 C 11.976562 -2.144531 13.804688 -1.671875 16.015625 -1.671875 Z M 16.015625 -1.671875 "/></g></g></g><g fill="#83cd29" fill-opacity="0.502"><g transform="translate(252.621206, 125.324752)"><g><path d="M 2.1875 0 L 9.375 -33.9375 L 11.65625 -33.9375 L 23.953125 -3.8125 L 24.046875 -3.8125 C 24.191406 -4.613281 24.347656 -5.484375 24.515625 -6.421875 C 24.679688 -7.359375 24.859375 -8.304688 25.046875 -9.265625 C 25.234375 -10.222656 25.421875 -11.128906 25.609375 -11.984375 L 30.296875 -33.9375 L 32.578125 -33.9375 L 25.40625 0 L 23.09375 0 L 10.765625 -30.140625 L 10.671875 -30.140625 C 10.566406 -29.515625 10.453125 -28.863281 10.328125 -28.1875 C 10.203125 -27.519531 10.070312 -26.832031 9.9375 -26.125 C 9.8125 -25.425781 9.675781 -24.71875 9.53125 -24 C 9.394531 -23.28125 9.257812 -22.554688 9.125 -21.828125 L 4.5 0 Z M 2.1875 0 "/></g></g></g><g fill="#83cd29" fill-opacity="0.502"><g transform="translate(285.258345, 125.324752)"><g><path d="M 9.1875 0.46875 C 7.289062 0.46875 5.695312 0.320312 4.40625 0.03125 C 3.125 -0.25 1.957031 -0.625 0.90625 -1.09375 L 0.90625 -3.53125 C 1.957031 -3 3.160156 -2.550781 4.515625 -2.1875 C 5.878906 -1.820312 7.445312 -1.640625 9.21875 -1.640625 C 10.269531 -1.640625 11.332031 -1.773438 12.40625 -2.046875 C 13.476562 -2.316406 14.46875 -2.742188 15.375 -3.328125 C 16.28125 -3.921875 17.007812 -4.6875 17.5625 -5.625 C 18.113281 -6.5625 18.390625 -7.695312 18.390625 -9.03125 C 18.390625 -10.25 18.125 -11.289062 17.59375 -12.15625 C 17.070312 -13.03125 16.304688 -13.816406 15.296875 -14.515625 C 14.296875 -15.210938 13.085938 -15.921875 11.671875 -16.640625 C 10.578125 -17.242188 9.546875 -17.910156 8.578125 -18.640625 C 7.609375 -19.378906 6.828125 -20.257812 6.234375 -21.28125 C 5.648438 -22.3125 5.359375 -23.546875 5.359375 -24.984375 C 5.359375 -26.617188 5.664062 -28.03125 6.28125 -29.21875 C 6.894531 -30.414062 7.722656 -31.394531 8.765625 -32.15625 C 9.804688 -32.925781 10.976562 -33.5 12.28125 -33.875 C 13.582031 -34.25 14.921875 -34.4375 16.296875 -34.4375 C 18.023438 -34.4375 19.507812 -34.269531 20.75 -33.9375 C 21.988281 -33.601562 23.195312 -33.148438 24.375 -32.578125 L 23.453125 -30.484375 C 22.335938 -31.035156 21.207031 -31.46875 20.0625 -31.78125 C 18.925781 -32.101562 17.65625 -32.265625 16.25 -32.265625 C 15.300781 -32.265625 14.335938 -32.132812 13.359375 -31.875 C 12.378906 -31.625 11.46875 -31.21875 10.625 -30.65625 C 9.789062 -30.101562 9.117188 -29.375 8.609375 -28.46875 C 8.097656 -27.5625 7.84375 -26.453125 7.84375 -25.140625 C 7.84375 -23.953125 8.085938 -22.960938 8.578125 -22.171875 C 9.078125 -21.378906 9.742188 -20.691406 10.578125 -20.109375 C 11.421875 -19.535156 12.351562 -18.96875 13.375 -18.40625 C 14.800781 -17.632812 16.078125 -16.847656 17.203125 -16.046875 C 18.328125 -15.253906 19.21875 -14.316406 19.875 -13.234375 C 20.539062 -12.160156 20.875 -10.804688 20.875 -9.171875 C 20.875 -7.460938 20.539062 -6 19.875 -4.78125 C 19.21875 -3.5625 18.332031 -2.5625 17.21875 -1.78125 C 16.113281 -1.007812 14.867188 -0.441406 13.484375 -0.078125 C 12.097656 0.285156 10.664062 0.46875 9.1875 0.46875 Z M 9.1875 0.46875 "/></g></g></g><g fill="#ffffff" fill-opacity="1"><g transform="translate(69.727948, 125.384196)"><g><path d="M 9.1875 0.46875 C 7.289062 0.46875 5.695312 0.320312 4.40625 0.03125 C 3.125 -0.25 1.957031 -0.625 0.90625 -1.09375 L 0.90625 -3.53125 C 1.957031 -3 3.160156 -2.550781 4.515625 -2.1875 C 5.878906 -1.820312 7.445312 -1.640625 9.21875 -1.640625 C 10.269531 -1.640625 11.332031 -1.773438 12.40625 -2.046875 C 13.476562 -2.316406 14.46875 -2.742188 15.375 -3.328125 C 16.28125 -3.921875 17.007812 -4.6875 17.5625 -5.625 C 18.113281 -6.5625 18.390625 -7.695312 18.390625 -9.03125 C 18.390625 -10.25 18.125 -11.289062 17.59375 -12.15625 C 17.070312 -13.03125 16.304688 -13.816406 15.296875 -14.515625 C 14.296875 -15.210938 13.085938 -15.921875 11.671875 -16.640625 C 10.578125 -17.242188 9.546875 -17.910156 8.578125 -18.640625 C 7.609375 -19.378906 6.828125 -20.257812 6.234375 -21.28125 C 5.648438 -22.3125 5.359375 -23.546875 5.359375 -24.984375 C 5.359375 -26.617188 5.664062 -28.03125 6.28125 -29.21875 C 6.894531 -30.414062 7.722656 -31.394531 8.765625 -32.15625 C 9.804688 -32.925781 10.976562 -33.5 12.28125 -33.875 C 13.582031 -34.25 14.921875 -34.4375 16.296875 -34.4375 C 18.023438 -34.4375 19.507812 -34.269531 20.75 -33.9375 C 21.988281 -33.601562 23.195312 -33.148438 24.375 -32.578125 L 23.453125 -30.484375 C 22.335938 -31.035156 21.207031 -31.46875 20.0625 -31.78125 C 18.925781 -32.101562 17.65625 -32.265625 16.25 -32.265625 C 15.300781 -32.265625 14.335938 -32.132812 13.359375 -31.875 C 12.378906 -31.625 11.46875 -31.21875 10.625 -30.65625 C 9.789062 -30.101562 9.117188 -29.375 8.609375 -28.46875 C 8.097656 -27.5625 7.84375 -26.453125 7.84375 -25.140625 C 7.84375 -23.953125 8.085938 -22.960938 8.578125 -22.171875 C 9.078125 -21.378906 9.742188 -20.691406 10.578125 -20.109375 C 11.421875 -19.535156 12.351562 -18.96875 13.375 -18.40625 C 14.800781 -17.632812 16.078125 -16.847656 17.203125 -16.046875 C 18.328125 -15.253906 19.21875 -14.316406 19.875 -13.234375 C 20.539062 -12.160156 20.875 -10.804688 20.875 -9.171875 C 20.875 -7.460938 20.539062 -6 19.875 -4.78125 C 19.21875 -3.5625 18.332031 -2.5625 17.21875 -1.78125 C 16.113281 -1.007812 14.867188 -0.441406 13.484375 -0.078125 C 12.097656 0.285156 10.664062 0.46875 9.1875 0.46875 Z M 9.1875 0.46875 "/></g></g></g><g fill="#ffffff" fill-opacity="1"><g transform="translate(93.521016, 125.384196)"><g><path d="M 15.921875 0.46875 C 13.085938 0.46875 10.773438 -0.117188 8.984375 -1.296875 C 7.191406 -2.472656 5.875 -4.070312 5.03125 -6.09375 C 4.195312 -8.113281 3.78125 -10.398438 3.78125 -12.953125 C 3.78125 -14.773438 3.9375 -16.566406 4.25 -18.328125 C 4.570312 -20.085938 5.039062 -21.769531 5.65625 -23.375 C 6.28125 -24.988281 7.0625 -26.46875 8 -27.8125 C 8.9375 -29.15625 10.023438 -30.328125 11.265625 -31.328125 C 12.515625 -32.328125 13.910156 -33.097656 15.453125 -33.640625 C 16.992188 -34.191406 18.691406 -34.46875 20.546875 -34.46875 C 24.179688 -34.46875 27.0625 -33.347656 29.1875 -31.109375 C 31.320312 -28.867188 32.390625 -25.550781 32.390625 -21.15625 C 32.390625 -19.644531 32.257812 -18.066406 32 -16.421875 C 31.75 -14.785156 31.351562 -13.160156 30.8125 -11.546875 C 30.269531 -9.929688 29.566406 -8.40625 28.703125 -6.96875 C 27.847656 -5.53125 26.8125 -4.253906 25.59375 -3.140625 C 24.382812 -2.023438 22.976562 -1.144531 21.375 -0.5 C 19.769531 0.144531 17.953125 0.46875 15.921875 0.46875 Z M 16.015625 -1.671875 C 17.660156 -1.671875 19.144531 -1.957031 20.46875 -2.53125 C 21.789062 -3.101562 22.960938 -3.890625 23.984375 -4.890625 C 25.015625 -5.898438 25.898438 -7.046875 26.640625 -8.328125 C 27.390625 -9.617188 28.003906 -10.988281 28.484375 -12.4375 C 28.960938 -13.894531 29.316406 -15.367188 29.546875 -16.859375 C 29.785156 -18.359375 29.90625 -19.796875 29.90625 -21.171875 C 29.90625 -24.640625 29.101562 -27.363281 27.5 -29.34375 C 25.894531 -31.320312 23.515625 -32.3125 20.359375 -32.3125 C 18.722656 -32.3125 17.234375 -32.046875 15.890625 -31.515625 C 14.554688 -30.984375 13.363281 -30.242188 12.3125 -29.296875 C 11.269531 -28.347656 10.367188 -27.25 9.609375 -26 C 8.847656 -24.75 8.21875 -23.398438 7.71875 -21.953125 C 7.226562 -20.515625 6.863281 -19.035156 6.625 -17.515625 C 6.382812 -16.003906 6.265625 -14.507812 6.265625 -13.03125 C 6.265625 -10.769531 6.613281 -8.785156 7.3125 -7.078125 C 8.019531 -5.378906 9.09375 -4.050781 10.53125 -3.09375 C 11.976562 -2.144531 13.804688 -1.671875 16.015625 -1.671875 Z M 16.015625 -1.671875 "/></g></g></g><g fill="#ffffff" fill-opacity="1"><g transform="translate(127.643759, 125.384196)"><g><path d="M 2.203125 0 L 9.40625 -33.9375 L 11.765625 -33.9375 L 5.03125 -2.1875 L 19.703125 -2.1875 L 19.25 0 Z M 2.203125 0 "/></g></g></g><g fill="#ffffff" fill-opacity="1"><g transform="translate(150.763658, 125.384196)"><g><path d="M 14.25 0.46875 C 12.101562 0.46875 10.265625 0.113281 8.734375 -0.59375 C 7.210938 -1.3125 6.046875 -2.359375 5.234375 -3.734375 C 4.421875 -5.109375 4.015625 -6.796875 4.015625 -8.796875 C 4.015625 -9.328125 4.054688 -9.910156 4.140625 -10.546875 C 4.222656 -11.191406 4.335938 -11.867188 4.484375 -12.578125 L 9.03125 -33.9375 L 11.421875 -33.9375 L 6.890625 -12.5625 C 6.753906 -11.90625 6.644531 -11.25 6.5625 -10.59375 C 6.488281 -9.9375 6.453125 -9.363281 6.453125 -8.875 C 6.453125 -6.5625 7.148438 -4.78125 8.546875 -3.53125 C 9.953125 -2.289062 11.894531 -1.671875 14.375 -1.671875 C 16.425781 -1.671875 18.210938 -2.054688 19.734375 -2.828125 C 21.253906 -3.609375 22.519531 -4.765625 23.53125 -6.296875 C 24.539062 -7.835938 25.296875 -9.769531 25.796875 -12.09375 L 30.484375 -33.9375 L 32.84375 -33.9375 L 28.1875 -11.8125 C 27.59375 -9.070312 26.6875 -6.789062 25.46875 -4.96875 C 24.25 -3.15625 22.703125 -1.796875 20.828125 -0.890625 C 18.953125 0.015625 16.757812 0.46875 14.25 0.46875 Z M 14.25 0.46875 "/></g></g></g><g fill="#ffffff" fill-opacity="1"><g transform="translate(183.377572, 125.384196)"><g><path d="M 7.796875 0 L 14.5625 -31.78125 L 4.359375 -31.78125 L 4.828125 -33.9375 L 27.625 -33.9375 L 27.1875 -31.78125 L 16.96875 -31.78125 L 10.234375 0 Z M 7.796875 0 "/></g></g></g><g fill="#ffffff" fill-opacity="1"><g transform="translate(206.706386, 125.384196)"><g><path d="M 2.1875 0 L 9.421875 -33.9375 L 11.75 -33.9375 L 4.53125 0 Z M 2.1875 0 "/></g></g></g><g fill="#ffffff" fill-opacity="1"><g transform="translate(218.498463, 125.384196)"><g><path d="M 15.921875 0.46875 C 13.085938 0.46875 10.773438 -0.117188 8.984375 -1.296875 C 7.191406 -2.472656 5.875 -4.070312 5.03125 -6.09375 C 4.195312 -8.113281 3.78125 -10.398438 3.78125 -12.953125 C 3.78125 -14.773438 3.9375 -16.566406 4.25 -18.328125 C 4.570312 -20.085938 5.039062 -21.769531 5.65625 -23.375 C 6.28125 -24.988281 7.0625 -26.46875 8 -27.8125 C 8.9375 -29.15625 10.023438 -30.328125 11.265625 -31.328125 C 12.515625 -32.328125 13.910156 -33.097656 15.453125 -33.640625 C 16.992188 -34.191406 18.691406 -34.46875 20.546875 -34.46875 C 24.179688 -34.46875 27.0625 -33.347656 29.1875 -31.109375 C 31.320312 -28.867188 32.390625 -25.550781 32.390625 -21.15625 C 32.390625 -19.644531 32.257812 -18.066406 32 -16.421875 C 31.75 -14.785156 31.351562 -13.160156 30.8125 -11.546875 C 30.269531 -9.929688 29.566406 -8.40625 28.703125 -6.96875 C 27.847656 -5.53125 26.8125 -4.253906 25.59375 -3.140625 C 24.382812 -2.023438 22.976562 -1.144531 21.375 -0.5 C 19.769531 0.144531 17.953125 0.46875 15.921875 0.46875 Z M 16.015625 -1.671875 C 17.660156 -1.671875 19.144531 -1.957031 20.46875 -2.53125 C 21.789062 -3.101562 22.960938 -3.890625 23.984375 -4.890625 C 25.015625 -5.898438 25.898438 -7.046875 26.640625 -8.328125 C 27.390625 -9.617188 28.003906 -10.988281 28.484375 -12.4375 C 28.960938 -13.894531 29.316406 -15.367188 29.546875 -16.859375 C 29.785156 -18.359375 29.90625 -19.796875 29.90625 -21.171875 C 29.90625 -24.640625 29.101562 -27.363281 27.5 -29.34375 C 25.894531 -31.320312 23.515625 -32.3125 20.359375 -32.3125 C 18.722656 -32.3125 17.234375 -32.046875 15.890625 -31.515625 C 14.554688 -30.984375 13.363281 -30.242188 12.3125 -29.296875 C 11.269531 -28.347656 10.367188 -27.25 9.609375 -26 C 8.847656 -24.75 8.21875 -23.398438 7.71875 -21.953125 C 7.226562 -20.515625 6.863281 -19.035156 6.625 -17.515625 C 6.382812 -16.003906 6.265625 -14.507812 6.265625 -13.03125 C 6.265625 -10.769531 6.613281 -8.785156 7.3125 -7.078125 C 8.019531 -5.378906 9.09375 -4.050781 10.53125 -3.09375 C 11.976562 -2.144531 13.804688 -1.671875 16.015625 -1.671875 Z M 16.015625 -1.671875 "/></g></g></g><g fill="#ffffff" fill-opacity="1"><g transform="translate(252.621206, 125.384196)"><g><path d="M 2.1875 0 L 9.375 -33.9375 L 11.65625 -33.9375 L 23.953125 -3.8125 L 24.046875 -3.8125 C 24.191406 -4.613281 24.347656 -5.484375 24.515625 -6.421875 C 24.679688 -7.359375 24.859375 -8.304688 25.046875 -9.265625 C 25.234375 -10.222656 25.421875 -11.128906 25.609375 -11.984375 L 30.296875 -33.9375 L 32.578125 -33.9375 L 25.40625 0 L 23.09375 0 L 10.765625 -30.140625 L 10.671875 -30.140625 C 10.566406 -29.515625 10.453125 -28.863281 10.328125 -28.1875 C 10.203125 -27.519531 10.070312 -26.832031 9.9375 -26.125 C 9.8125 -25.425781 9.675781 -24.71875 9.53125 -24 C 9.394531 -23.28125 9.257812 -22.554688 9.125 -21.828125 L 4.5 0 Z M 2.1875 0 "/></g></g></g><g fill="#ffffff" fill-opacity="1"><g transform="translate(285.258345, 125.384196)"><g><path d="M 9.1875 0.46875 C 7.289062 0.46875 5.695312 0.320312 4.40625 0.03125 C 3.125 -0.25 1.957031 -0.625 0.90625 -1.09375 L 0.90625 -3.53125 C 1.957031 -3 3.160156 -2.550781 4.515625 -2.1875 C 5.878906 -1.820312 7.445312 -1.640625 9.21875 -1.640625 C 10.269531 -1.640625 11.332031 -1.773438 12.40625 -2.046875 C 13.476562 -2.316406 14.46875 -2.742188 15.375 -3.328125 C 16.28125 -3.921875 17.007812 -4.6875 17.5625 -5.625 C 18.113281 -6.5625 18.390625 -7.695312 18.390625 -9.03125 C 18.390625 -10.25 18.125 -11.289062 17.59375 -12.15625 C 17.070312 -13.03125 16.304688 -13.816406 15.296875 -14.515625 C 14.296875 -15.210938 13.085938 -15.921875 11.671875 -16.640625 C 10.578125 -17.242188 9.546875 -17.910156 8.578125 -18.640625 C 7.609375 -19.378906 6.828125 -20.257812 6.234375 -21.28125 C 5.648438 -22.3125 5.359375 -23.546875 5.359375 -24.984375 C 5.359375 -26.617188 5.664062 -28.03125 6.28125 -29.21875 C 6.894531 -30.414062 7.722656 -31.394531 8.765625 -32.15625 C 9.804688 -32.925781 10.976562 -33.5 12.28125 -33.875 C 13.582031 -34.25 14.921875 -34.4375 16.296875 -34.4375 C 18.023438 -34.4375 19.507812 -34.269531 20.75 -33.9375 C 21.988281 -33.601562 23.195312 -33.148438 24.375 -32.578125 L 23.453125 -30.484375 C 22.335938 -31.035156 21.207031 -31.46875 20.0625 -31.78125 C 18.925781 -32.101562 17.65625 -32.265625 16.25 -32.265625 C 15.300781 -32.265625 14.335938 -32.132812 13.359375 -31.875 C 12.378906 -31.625 11.46875 -31.21875 10.625 -30.65625 C 9.789062 -30.101562 9.117188 -29.375 8.609375 -28.46875 C 8.097656 -27.5625 7.84375 -26.453125 7.84375 -25.140625 C 7.84375 -23.953125 8.085938 -22.960938 8.578125 -22.171875 C 9.078125 -21.378906 9.742188 -20.691406 10.578125 -20.109375 C 11.421875 -19.535156 12.351562 -18.96875 13.375 -18.40625 C 14.800781 -17.632812 16.078125 -16.847656 17.203125 -16.046875 C 18.328125 -15.253906 19.21875 -14.316406 19.875 -13.234375 C 20.539062 -12.160156 20.875 -10.804688 20.875 -9.171875 C 20.875 -7.460938 20.539062 -6 19.875 -4.78125 C 19.21875 -3.5625 18.332031 -2.5625 17.21875 -1.78125 C 16.113281 -1.007812 14.867188 -0.441406 13.484375 -0.078125 C 12.097656 0.285156 10.664062 0.46875 9.1875 0.46875 Z M 9.1875 0.46875 "/></g></g></g><g fill="#ffffff" fill-opacity="1"><g transform="translate(11.600292, 69.236672)"><g/></g></g><g fill="#ffffff" fill-opacity="1"><g transform="translate(31.310662, 69.236672)"><g><path d="M 25.15625 -36.875 L 35.71875 -56.28125 L 49.046875 -56.28125 L 32.65625 -28.375 L 49.46875 0 L 35.984375 0 L 25.15625 -19.71875 L 14.34375 0 L 0.84375 0 L 17.65625 -28.375 L 1.28125 -56.28125 L 14.609375 -56.28125 Z M 25.15625 -36.875 "/></g></g></g><g fill="#ffffff" fill-opacity="1"><g transform="translate(81.585843, 69.236672)"><g><path d="M 19.984375 0.765625 C 16.328125 0.742188 13.085938 -0.144531 10.265625 -1.90625 C 7.441406 -3.675781 5.332031 -6.097656 3.9375 -9.171875 C 2.550781 -12.253906 2.007812 -15.648438 2.3125 -19.359375 L 2.4375 -20.90625 C 2.820312 -24.976562 4.003906 -28.710938 5.984375 -32.109375 C 7.972656 -35.515625 10.523438 -38.140625 13.640625 -39.984375 C 16.765625 -41.828125 20.21875 -42.695312 24 -42.59375 C 29.382812 -42.488281 33.460938 -40.507812 36.234375 -36.65625 C 39.003906 -32.800781 40.054688 -27.925781 39.390625 -22.03125 L 38.765625 -17.28125 L 13.140625 -17.28125 C 13.035156 -14.570312 13.691406 -12.40625 15.109375 -10.78125 C 16.523438 -9.15625 18.457031 -8.316406 20.90625 -8.265625 C 24.875 -8.160156 28.351562 -9.695312 31.34375 -12.875 L 36.328125 -6.6875 C 34.753906 -4.3125 32.484375 -2.460938 29.515625 -1.140625 C 26.554688 0.179688 23.378906 0.816406 19.984375 0.765625 Z M 23.453125 -33.59375 C 21.453125 -33.644531 19.671875 -33.007812 18.109375 -31.6875 C 16.546875 -30.375 15.148438 -28.097656 13.921875 -24.859375 L 28.90625 -24.859375 L 29.140625 -25.859375 C 29.296875 -26.890625 29.3125 -27.867188 29.1875 -28.796875 C 28.925781 -30.285156 28.289062 -31.445312 27.28125 -32.28125 C 26.28125 -33.125 25.003906 -33.5625 23.453125 -33.59375 Z M 23.453125 -33.59375 "/></g></g></g><g fill="#ffffff" fill-opacity="1"><g transform="translate(123.481674, 69.236672)"><g><path d="M 17.515625 -41.859375 L 16.625 -37.109375 C 20 -40.867188 24.082031 -42.695312 28.875 -42.59375 C 31.445312 -42.539062 33.582031 -41.945312 35.28125 -40.8125 C 36.988281 -39.675781 38.140625 -38.144531 38.734375 -36.21875 C 42.410156 -40.570312 46.738281 -42.695312 51.71875 -42.59375 C 55.550781 -42.519531 58.441406 -41.207031 60.390625 -38.65625 C 62.335938 -36.101562 63.15625 -32.414062 62.84375 -27.59375 L 62.765625 -26.625 L 58.328125 0 L 47.390625 0 L 51.828125 -26.703125 C 51.929688 -27.660156 51.972656 -28.550781 51.953125 -29.375 C 51.765625 -32.082031 50.21875 -33.472656 47.3125 -33.546875 C 44.320312 -33.546875 41.753906 -31.945312 39.609375 -28.75 L 39.5 -27.859375 L 34.625 0 L 23.734375 0 L 28.171875 -26.625 C 28.273438 -27.582031 28.316406 -28.472656 28.296875 -29.296875 C 28.109375 -32.023438 26.570312 -33.429688 23.6875 -33.515625 C 20.9375 -33.585938 18.453125 -32.285156 16.234375 -29.609375 L 11.015625 0 L 0.109375 0 L 7.34375 -41.8125 Z M 17.515625 -41.859375 "/></g></g></g><g fill="#ffffff" fill-opacity="1"><g transform="translate(190.344946, 69.236672)"><g><path d="M 11.640625 0 L 0.65625 0 L 7.921875 -41.8125 L 18.90625 -41.8125 Z M 9.203125 -52.453125 C 9.148438 -54.171875 9.710938 -55.597656 10.890625 -56.734375 C 12.078125 -57.867188 13.507812 -58.4375 15.1875 -58.4375 C 16.832031 -58.488281 18.257812 -57.984375 19.46875 -56.921875 C 20.6875 -55.867188 21.320312 -54.503906 21.375 -52.828125 C 21.425781 -51.234375 20.890625 -49.84375 19.765625 -48.65625 C 18.648438 -47.476562 17.191406 -46.863281 15.390625 -46.8125 C 13.765625 -46.757812 12.335938 -47.25 11.109375 -48.28125 C 9.890625 -49.3125 9.253906 -50.703125 9.203125 -52.453125 Z M 9.203125 -52.453125 "/></g></g></g><g fill="#ffffff" fill-opacity="1"><g transform="translate(211.099621, 69.236672)"><g><path d="M 28.75 -31.34375 C 27.257812 -31.601562 26.035156 -31.734375 25.078125 -31.734375 C 21.191406 -31.835938 18.113281 -30.378906 15.84375 -27.359375 L 11.015625 0 L 0.109375 0 L 7.375 -41.8125 L 17.625 -41.859375 L 16.625 -36.75 C 19.25 -40.695312 22.492188 -42.671875 26.359375 -42.671875 C 27.441406 -42.671875 28.703125 -42.488281 30.140625 -42.125 Z M 28.75 -31.34375 "/></g></g></g><g fill="#ffffff" fill-opacity="1"><g transform="translate(239.506855, 69.236672)"><g><path d="M 24.046875 -42.59375 C 27.722656 -42.539062 30.894531 -41.59375 33.5625 -39.75 C 36.226562 -37.90625 38.1875 -35.363281 39.4375 -32.125 C 40.6875 -28.894531 41.132812 -25.3125 40.78125 -21.375 C 40.1875 -14.726562 37.875 -9.347656 33.84375 -5.234375 C 29.8125 -1.128906 24.832031 0.867188 18.90625 0.765625 C 15.269531 0.722656 12.125 -0.203125 9.46875 -2.015625 C 6.8125 -3.835938 4.851562 -6.359375 3.59375 -9.578125 C 2.332031 -12.804688 1.878906 -16.363281 2.234375 -20.25 C 2.910156 -27.15625 5.257812 -32.644531 9.28125 -36.71875 C 13.300781 -40.789062 18.222656 -42.75 24.046875 -42.59375 Z M 13.03125 -16.265625 C 13.082031 -13.796875 13.660156 -11.84375 14.765625 -10.40625 C 15.867188 -8.976562 17.425781 -8.238281 19.4375 -8.1875 C 22.789062 -8.09375 25.421875 -9.632812 27.328125 -12.8125 C 29.234375 -16 30.125 -20.179688 30 -25.359375 C 29.894531 -27.828125 29.289062 -29.800781 28.1875 -31.28125 C 27.09375 -32.769531 25.53125 -33.539062 23.5 -33.59375 C 20.25 -33.6875 17.648438 -32.15625 15.703125 -29 C 13.765625 -25.84375 12.875 -21.597656 13.03125 -16.265625 Z M 13.03125 -16.265625 "/></g></g></g><g fill="#ffffff" fill-opacity="1"><g transform="translate(283.296507, 69.236672)"><g><path d="M 17.359375 -41.859375 L 16.421875 -36.90625 C 19.773438 -40.800781 23.832031 -42.695312 28.59375 -42.59375 C 32.539062 -42.519531 35.453125 -41.078125 37.328125 -38.265625 C 39.210938 -35.453125 39.898438 -31.5625 39.390625 -26.59375 L 34.984375 0 L 24.078125 0 L 28.5625 -26.703125 C 28.6875 -27.710938 28.710938 -28.628906 28.640625 -29.453125 C 28.304688 -32.078125 26.65625 -33.429688 23.6875 -33.515625 C 20.832031 -33.617188 18.269531 -32.289062 16 -29.53125 L 10.78125 0 L -0.109375 0 L 7.15625 -41.8125 Z M 17.359375 -41.859375 "/></g></g></g><g fill="#ffffff" fill-opacity="1"><g transform="translate(326.691407, 69.236672)"><g/></g></g><g fill="#ffffff" fill-opacity="1"><g transform="translate(7.264596, 69.110717)"><g/></g></g><g fill="#ffffff" fill-opacity="1"><g transform="translate(26.974403, 69.110717)"><g><path d="M 25.15625 -36.875 L 35.71875 -56.28125 L 49.046875 -56.28125 L 32.65625 -28.375 L 49.46875 0 L 35.984375 0 L 25.15625 -19.71875 L 14.34375 0 L 0.84375 0 L 17.65625 -28.375 L 1.28125 -56.28125 L 14.609375 -56.28125 Z M 25.15625 -36.875 "/></g></g></g><g fill="#ffffff" fill-opacity="1"><g transform="translate(77.243715, 69.110717)"><g/></g></g><g fill="#4ca456" fill-opacity="1"><g transform="translate(2.432572, 69.236672)"><g/></g></g><g fill="#4ca456" fill-opacity="1"><g transform="translate(22.142942, 69.236672)"><g><path d="M 25.15625 -36.875 L 35.71875 -56.28125 L 49.046875 -56.28125 L 32.65625 -28.375 L 49.46875 0 L 35.984375 0 L 25.15625 -19.71875 L 14.34375 0 L 0.84375 0 L 17.65625 -28.375 L 1.28125 -56.28125 L 14.609375 -56.28125 Z M 25.15625 -36.875 "/></g></g></g><g fill="#4ca456" fill-opacity="1"><g transform="translate(72.418124, 69.236672)"><g/></g></g></svg>